<?xml version="1.0" standalone="no"?><!DOCTYPE svg PUBLIC "-//W3C//DTD SVG 1.1//EN" "http://www.w3.org/Graphics/SVG/1.1/DTD/svg11.dtd"><svg t="1726748487288" class="icon" viewBox="0 0 1024 1024" version="1.1" xmlns="http://www.w3.org/2000/svg" p-id="1616" xmlns:xlink="http://www.w3.org/1999/xlink" width="200" height="200"><path d="M720.554667 477.866667a214.016 214.016 0 1 1 214.016-213.504A214.186667 214.186667 0 0 1 720.554667 477.866667z m0-375.466667a162.816 162.816 0 1 0 162.816 162.816A162.986667 162.986667 0 0 0 720.554667 102.4z" fill="#707070" p-id="1617"></path><path d="M720.554667 384a25.6 25.6 0 0 1-25.6-25.6v-56.490667a25.6 25.6 0 1 1 51.2 0V358.4a25.6 25.6 0 0 1-25.6 25.6z" fill="#707070" p-id="1618"></path><path d="M720.554667 188.928m-37.717334 0a37.717333 37.717333 0 1 0 75.434667 0 37.717333 37.717333 0 1 0-75.434667 0Z" fill="#707070" p-id="1619"></path><path d="M910.677333 973.653333H113.322667a72.533333 72.533333 0 0 1-72.533334-72.533333v-750.933333a72.704 72.704 0 0 1 72.533334-72.021334h229.205333a25.6 25.6 0 0 1 0 51.2H113.322667a21.333333 21.333333 0 0 0-21.333334 21.333334v750.933333a21.333333 21.333333 0 0 0 21.333334 21.333333h797.354666a21.333333 21.333333 0 0 0 21.333334-21.333333V500.053333a25.6 25.6 0 1 1 51.2 0v401.066667a72.533333 72.533333 0 0 1-72.533334 72.533333z" fill="#707070" p-id="1620"></path><path d="M712.021333 872.106667a25.941333 25.941333 0 0 1-17.066666-6.144L395.264 608.597333a21.845333 21.845333 0 0 0-29.013333 0L112.64 841.557333a25.6 25.6 0 0 1-34.133333-37.717333l253.098666-232.448a73.216 73.216 0 0 1 96.938667-1.536l300.032 257.194667a25.6 25.6 0 0 1 2.901333 36.181333 25.941333 25.941333 0 0 1-19.456 8.874667z" fill="#707070" p-id="1621"></path><path d="M949.077333 753.493333a25.429333 25.429333 0 0 1-15.189333-5.12L777.045333 631.466667a22.016 22.016 0 0 0-28.672 2.048l-113.152 113.152a25.6 25.6 0 1 1-36.181333-36.181334L712.192 597.333333a73.386667 73.386667 0 0 1 95.573333-6.826666l156.842667 117.589333a25.6 25.6 0 0 1-15.530667 46.08z" fill="#707070" p-id="1622"></path><path d="M761.002667 295.424m-163.84 0a163.84 163.84 0 1 0 327.68 0 163.84 163.84 0 1 0-327.68 0Z" fill="#707070" opacity=".3" p-id="1623"></path></svg>