<?xml version="1.0" standalone="no"?><!DOCTYPE svg PUBLIC "-//W3C//DTD SVG 1.1//EN" "http://www.w3.org/Graphics/SVG/1.1/DTD/svg11.dtd"><svg t="1727096573677" class="icon" viewBox="0 0 1024 1024" version="1.1" xmlns="http://www.w3.org/2000/svg" p-id="910" xmlns:xlink="http://www.w3.org/1999/xlink" width="200" height="200"><path d="M0 0h1024v1024H0z" fill="#FFFFFF" fill-opacity="0" p-id="911"></path><path d="M873.6 595.84a290.24 290.24 0 0 1 135.296 282.24 32 32 0 1 1-63.552-7.872 226.176 226.176 0 0 0-102.208-217.856c-16.704-10.816-13.632-41.408-3.52-56.256 7.232-10.56 29.952-2.752 34.048-0.192z m-331.712-19.328a290.176 290.176 0 0 1 290.176 290.176 32 32 0 1 1-64 0 226.176 226.176 0 0 0-226.176-226.176H354.56a226.176 226.176 0 0 0-226.176 226.176 32 32 0 0 1-64 0A290.176 290.176 0 0 1 354.56 576.512h187.328zM448 128a191.872 191.872 0 0 1 177.408 265.472 191.872 191.872 0 0 1-250.88 103.936 191.872 191.872 0 0 1-103.936-250.88A191.872 191.872 0 0 1 448 128z m305.6 38.272l4.48 2.56 3.712 2.752a191.808 191.808 0 0 1 37.824 255.104 191.872 191.872 0 0 1-23.872 29.056l-7.04 6.656c-0.64 0.64-3.648 2.88-8.96 6.656a27.84 27.84 0 0 1-38.848-6.4l-2.112-3.392a38.08 38.08 0 0 1 9.6-46.912l2.112-1.856a127.808 127.808 0 0 0 8.448-171.712c-2.688-3.2-5.44-6.336-8.448-9.28l-4.48-4.352-4.8-4.096a27.776 27.776 0 0 1-7.68-32.96l3.712-8.192a27.456 27.456 0 0 1 36.352-13.632zM448 192a127.936 127.936 0 1 0 0 255.872A127.936 127.936 0 0 0 448 192z" fill="#333333" p-id="912"></path></svg>